<mxfile host="Electron" agent="Mozilla/5.0 (X11; Linux x86_64) AppleWebKit/537.36 (KHTML, like Gecko) draw.io/24.7.17 Chrome/128.0.6613.36 Electron/32.0.1 Safari/537.36" version="24.7.17">
  <diagram id="P9l9TTPPwIEBNBpd63L8" name="Page-1">
    <mxGraphModel dx="1434" dy="843" grid="0" gridSize="10" guides="1" tooltips="1" connect="1" arrows="1" fold="1" page="1" pageScale="1" pageWidth="850" pageHeight="1100" math="0" shadow="0">
      <root>
        <mxCell id="0" />
        <mxCell id="1" parent="0" />
        <mxCell id="7" value="" style="edgeStyle=none;html=1;" parent="1" source="2" target="3" edge="1">
          <mxGeometry relative="1" as="geometry" />
        </mxCell>
        <mxCell id="2" value="&lt;b&gt;Problem definition&lt;/b&gt;&lt;br&gt;e.g. predict electric price from generation data&amp;nbsp;" style="rounded=1;whiteSpace=wrap;html=1;fillColor=#f8cecc;strokeColor=#b85450;" parent="1" vertex="1">
          <mxGeometry x="240" y="40" width="200" height="80" as="geometry" />
        </mxCell>
        <mxCell id="8" value="" style="edgeStyle=none;html=1;entryX=0.5;entryY=0;entryDx=0;entryDy=0;" parent="1" source="3" target="5" edge="1">
          <mxGeometry relative="1" as="geometry">
            <mxPoint x="340" y="280" as="targetPoint" />
          </mxGeometry>
        </mxCell>
        <mxCell id="3" value="&lt;b&gt;Data collection and engineering&lt;/b&gt;&lt;br&gt;e.g. cleaned hourly electric prices, plot correlations, log transform windspeed" style="rounded=1;whiteSpace=wrap;html=1;fillColor=#d5e8d4;strokeColor=#82b366;" parent="1" vertex="1">
          <mxGeometry x="240" y="160" width="200" height="80" as="geometry" />
        </mxCell>
        <mxCell id="10" value="" style="edgeStyle=none;html=1;" parent="1" source="5" target="6" edge="1">
          <mxGeometry relative="1" as="geometry" />
        </mxCell>
        <mxCell id="5" value="&lt;b&gt;Build and train model&lt;/b&gt;&lt;br&gt;&lt;br&gt;e.g. fit regression, or neural network" style="rounded=1;whiteSpace=wrap;html=1;fillColor=#ffe6cc;strokeColor=#d79b00;" parent="1" vertex="1">
          <mxGeometry x="240" y="280" width="200" height="80" as="geometry" />
        </mxCell>
        <mxCell id="6" value="&lt;b&gt;Analyze and present results&lt;/b&gt;&lt;br&gt;&lt;br&gt;e.g. view MAE, plot forecasts" style="rounded=1;whiteSpace=wrap;html=1;fillColor=#dae8fc;strokeColor=#6c8ebf;" parent="1" vertex="1">
          <mxGeometry x="240" y="400" width="200" height="80" as="geometry" />
        </mxCell>
        <mxCell id="12" style="edgeStyle=orthogonalEdgeStyle;html=1;entryX=1;entryY=0.75;entryDx=0;entryDy=0;curved=1;dashed=1;exitX=1;exitY=0.25;exitDx=0;exitDy=0;" parent="1" source="5" target="3" edge="1">
          <mxGeometry relative="1" as="geometry">
            <mxPoint x="460" y="300" as="sourcePoint" />
            <mxPoint x="480" y="200" as="targetPoint" />
            <Array as="points">
              <mxPoint x="480" y="300" />
              <mxPoint x="480" y="220" />
            </Array>
          </mxGeometry>
        </mxCell>
        <mxCell id="qNtcgGb3dbeuLbBAMTXt-16" value="&lt;b&gt;&lt;i&gt;&lt;font color=&quot;#ff0000&quot;&gt;X&lt;/font&gt;&lt;/i&gt;&lt;/b&gt;" style="edgeLabel;html=1;align=center;verticalAlign=middle;resizable=0;points=[];" parent="12" vertex="1" connectable="0">
          <mxGeometry x="0.0065" y="1" relative="1" as="geometry">
            <mxPoint x="-29" y="50" as="offset" />
          </mxGeometry>
        </mxCell>
        <mxCell id="13" style="edgeStyle=orthogonalEdgeStyle;html=1;exitX=1;exitY=0.25;exitDx=0;exitDy=0;curved=1;dashed=1;" parent="1" source="6" edge="1">
          <mxGeometry relative="1" as="geometry">
            <mxPoint x="460" y="560" as="sourcePoint" />
            <mxPoint x="440" y="340" as="targetPoint" />
            <Array as="points">
              <mxPoint x="480" y="420" />
              <mxPoint x="480" y="340" />
            </Array>
          </mxGeometry>
        </mxCell>
        <mxCell id="qNtcgGb3dbeuLbBAMTXt-14" value="&lt;b&gt;&lt;i&gt;&lt;font color=&quot;#ff0000&quot;&gt;X&lt;/font&gt;&lt;/i&gt;&lt;/b&gt;" style="edgeLabel;html=1;align=center;verticalAlign=middle;resizable=0;points=[];" parent="13" vertex="1" connectable="0">
          <mxGeometry x="-0.2375" y="2" relative="1" as="geometry">
            <mxPoint x="-28" y="31" as="offset" />
          </mxGeometry>
        </mxCell>
        <mxCell id="DxveCnrPH_J9gRzyNfcN-15" value="&lt;font style=&quot;font-size: 48px;&quot;&gt;❗&lt;/font&gt;" style="text;html=1;align=center;verticalAlign=middle;whiteSpace=wrap;rounded=0;" parent="1" vertex="1">
          <mxGeometry x="120" y="40" width="80" height="80" as="geometry" />
        </mxCell>
        <mxCell id="DxveCnrPH_J9gRzyNfcN-17" value="&lt;font style=&quot;font-size: 48px;&quot;&gt;🔎&lt;/font&gt;" style="text;html=1;align=center;verticalAlign=middle;whiteSpace=wrap;rounded=0;" parent="1" vertex="1">
          <mxGeometry x="120" y="160" width="80" height="80" as="geometry" />
        </mxCell>
        <mxCell id="DxveCnrPH_J9gRzyNfcN-18" value="&lt;font style=&quot;font-size: 48px;&quot;&gt;🧠&lt;/font&gt;" style="text;html=1;align=center;verticalAlign=middle;whiteSpace=wrap;rounded=0;" parent="1" vertex="1">
          <mxGeometry x="120" y="280" width="80" height="80" as="geometry" />
        </mxCell>
        <mxCell id="DxveCnrPH_J9gRzyNfcN-20" value="&lt;font style=&quot;font-size: 48px;&quot;&gt;📊&lt;/font&gt;" style="text;html=1;align=center;verticalAlign=middle;whiteSpace=wrap;rounded=0;rotation=0;flipH=1;" parent="1" vertex="1">
          <mxGeometry x="120" y="400" width="80" height="80" as="geometry" />
        </mxCell>
      </root>
    </mxGraphModel>
  </diagram>
</mxfile>
